<svg xmlns="http://www.w3.org/2000/svg" viewBox="0 0 64 80" x="0px" y="0px">
    <path d="M46.58,19.76a2.579,2.579,0,0,1,.04.389,1.989,1.989,0,0,1-.59,1.42,1.724,1.724,0,0,1-.3.25A2.178,2.178,0,0,1,45.38,22a1.529,1.529,0,0,1-.37.109,1.667,1.667,0,0,1-.39.04A2.214,2.214,0,0,1,43.85,22a2.091,2.091,0,0,1-.34-.181,2.2,2.2,0,0,1-.31-.25,2.021,2.021,0,0,1-.58-1.42,1.719,1.719,0,0,1,.04-.389,1.577,1.577,0,0,1,.11-.37,2.183,2.183,0,0,1,.18-.35,2.4,2.4,0,0,1,.25-.3,2.278,2.278,0,0,1,.31-.25,2.085,2.085,0,0,1,.34-.18,2.536,2.536,0,0,1,.379-.121,2.008,2.008,0,0,1,1.8.551,1.81,1.81,0,0,1,.25.3,2.32,2.32,0,0,1,.19.35A2.259,2.259,0,0,1,46.58,19.76ZM42.94,32A10.94,10.94,0,1,1,32,21.06,10.955,10.955,0,0,1,42.94,32ZM33.5,24.56a1.517,1.517,0,0,0-1.5-1.5,8.9,8.9,0,0,0-8,4.97,1.5,1.5,0,0,0,.36,1.8,1.688,1.688,0,0,0,.31.21,1.438,1.438,0,0,0,.67.16,1.486,1.486,0,0,0,1.34-.83A5.907,5.907,0,0,1,32,26.06,1.5,1.5,0,0,0,33.5,24.56Zm22,.44V39A16.519,16.519,0,0,1,39,55.5H25A16.519,16.519,0,0,1,8.5,39V25A16.519,16.519,0,0,1,25,8.5H39A16.519,16.519,0,0,1,55.5,25Zm-3,0A13.515,13.515,0,0,0,39,11.5H25A13.515,13.515,0,0,0,11.5,25V39A13.515,13.515,0,0,0,25,52.5H39A13.515,13.515,0,0,0,52.5,39Z" />
</svg>