<svg xmlns="http://www.w3.org/2000/svg" data-name="Layer 1" viewBox="0 0 100 125" x="0px" y="0px"><title>world</title><path d="M74.8,38.15l.16-.71-.12-.85L73.25,34.5l-.17-.61L72.53,33l.44-.83.7-.49.4-.47h.56l.84.21.38,1-.45.19-.56.31,0,.39-.21.23.53.46.31.54.45.29.34.37.37.87.17-.62.55.66.35.43-.49.15h-.49l.24.6.12.46.48.44c.11.57.21,1.14.3,1.72l-1.4.43-.28-.5-.59-.4-.55-.22-.28-.66Zm4.82-4.38.17-.47c-.09-.27-.18-.55-.28-.83L79,32h-.39l-.11.31.06.89.34.3-.12-1,.49,1.3ZM88.3,70.2A43.33,43.33,0,0,1,35.94,91l-.24-.09-.45-.17-.2-.09-.14-.06-.35-.14-.25-.11h.14l-.1-.1-.19-.12-.43-.22-.49-.27L33,89.43l-.21-.07-.24-.11-.33-.18L32,89l-.21-.08-.28-.11-.23-.13v0l.17.07.11,0,.33.12,0,0,.12,0-.05-.08-.46-.33-.34-.28-.49-.34-.4-.28-.34-.29L29.54,87l0-.08.26.18.51.42L30,87.2l-.46-.39-.48-.43-.16-.22-.28-.26-.54-.43L27.56,85l-.43-.45,0-.13-.17-.31,0-.27,0-.23-.09-.2h.46l.11-.14-.22-.23.15-.11L27,82.61l-.13-.33L26.72,82c-.08-.08-.15-.17-.22-.25v-.17L26.12,81,26,80.74v-.12l-.34-.45-.29-.49-.79-1.07-.27-.45-.08-.26-.13-.09,0-.17.3.12,0-.23L24,76.6l.16-.19,0-.47-.14-.72-.39-.89-.47-.74L22.82,73h-.35l-.39-.15-.39-.26-.48-.42-.64-.51-.66-.13-.23.07L19,71.35l-.1,0-.27.42-.23-.62-.64-.58-.61-.37L16.75,70l0,.23.14.39-.14-.07V71l-.15-.22,0-.6,0-.17-.5-.38-.3,0,.07.4,0,.12L15.57,70l-.12-.31.16,0-.1-.82-.26-.43-.54-.6-.5-1-.63-.85-.37-.18-.39-.26-.38.08-.19-.22-.08.12-.45-.57-.17-.17-.22-.5L11,63.79l-.26-.25-.22,0-.12-.6L10,62.51l-.12-.34,0-.07-.14-.22-.26.55L9.14,62l-.06.17L8.94,62l-.17-.51-.08-.18-.07,0-.17-.39.1.48v.18l0,.4.31.94v.2l-.12-.32-.25-1-.15-.52,0-.14,0-.25-.07-.22v.51l.05.27v.22c0,.08.05.16.07.24l0-.1c.05.16.08.32.13.47.16.55.33,1.09.5,1.63s.37,1.07.57,1.6c.08.21.16.42.25.63A43.29,43.29,0,1,1,92.35,59c.12-.58.24-1.17.33-1.77a43.45,43.45,0,0,0,0-14,42.95,42.95,0,0,0-4.26-12.86,43.53,43.53,0,0,0-7.84-10.71,44.17,44.17,0,0,0-5-4.32,43.3,43.3,0,0,0-5.67-3.52,42.36,42.36,0,0,0-6.2-2.62l-1-.33h0l-.12,0h-.06l-.19-.06-.07,0-.11,0-.14,0-.33-.1-.14,0L61,8.38l-.13,0h0c.4.1.8.22,1.21.34l.37.11.18.05h0l.15.05.3.09.11,0L63,9h0l.13,0,.12,0h0l-.08,0L62.94,9l-.14,0,.08,0,.17.05L62.9,9l.24.09h0l0,0,.33.1.07,0,.1,0,0,0,.2.08.06,0,.11.05.22.1-.11,0-.06,0,.06,0,.13,0,.11.05h0l.15.06.06,0,.2.08h0l-.09,0h0l.18.07.07,0,.11,0,.16.06h0l.24.09.08,0,.24.09.24.11.1,0-.06,0-.16,0,.18.1H65.9l0,.06,0,.06.31.15.4.18.29.15.49.19.18.06.26.11.32.16.11.08-.33-.12-.43-.17-.35-.11-.18,0L66.69,11h-.08l.19.13.14,0,.15.08.24.08.16.08-.24-.05-.15-.05.14.12.58.27.39.13.18.09.21.08.06.07-.6-.24H67.9l-.12,0-.33-.19-.23-.1-.35-.23-.35-.2-.44-.2H66l.3.15.49.29.14.17.15.1.12.1,1,.48.23.13.63.46.27.18.44.3h.16l0-.11.36.13.5.22.5.32.19.18.18.14.54.25-.25,0-.44-.26L71,13.65l-.63-.31,0,.16.91.64.32.38.19.14.16.37.25.26-.33-.11-.16.06-.28-.12-.08,0-.17-.06-.21-.22.07,0,.27.14v-.11l.3.17-.06-.1h.11l-.21-.16v-.09l-.22-.19v0L71,14.37,71,14.23l-.1-.11L70.66,14l-.26-.21-.05-.08-.66-.35-.61-.4-.28-.21-.43-.27-.43-.31L67.7,12l-.62-.29L67,11.64l-.24-.2-.25-.16-.66-.36-.42-.13h-.19l-.2,0,1.15.79.15.24.19.16.28.15h.08l.41.29.24.18.1.11.2.14.55.2.53.33.23.08.32.25.07.15-.77-.38-.33-.13-.59-.21L67.4,13l-.48-.17-.78-.09-.29-.16-.45-.17-.11,0,.26.2.25.09.18.09.28.06.36.25.41.24.15.13-.1.05,0,0,.21.18-.07,0-.24-.1-.12-.16-.41-.18,0,.3-.31,0-.18,0,.05.25h-.25l-.29-.09-.08-.06.2,0-.21-.14-.13-.22-.23.16.17.23h0l-.21-.11-.42.2v.13l-.11.15,0,.08-.24.1.27.4-.08.13h-.46l-.35-.24-.21-.11-.2-.22.06-.08.14-.1.28,0-.43-.3-.21-.16-.2-.08H62.3L62,13.5l0,0,.36.18.32.38.19.44.22,0,.1.06.18.19.13.2,0,.15,0,.15-.16-.05h-.06l-.15-.13-.3-.07-.25,0,0,.21-.25.14-.08.18-.06.18.08.14.35.28.24.26-.21.07-.3-.11-.2-.08-.29,0-.2-.08L61.24,16l-.11.25.27.27.26.14.32.06.11.26-.18.1-.2-.08-.32-.08-.08-.1-.17-.1-.27-.05-.23-.07-.15-.26-.16-.18-.25-.33.05-.13-.38-.42-.38-.15-.16-.1-.3-.14-.27-.21-.22-.14.63.25.48.11L60,15l.72.16.68.09.46-.17.22-.4-.15-.22-.29-.29-.28-.13L61,13.88l-.2,0-.27-.16-.17,0-1.2-.52L58.7,13l-.1,0-.21-.12-.2.07L58,13h-.23l-.13-.09.23-.1-.48-.15v.18l-.52-.14-.1.09-.16-.13-.27-.17.28.07.12-.12.17-.06-.33-.22-.35-.06L56,12l-.11.31L55.7,12l.07-.06-.08-.1-.27-.06-.07.11.07.11-.09.25-.2-.35-.3.51-.12-.12.1-.22.09-.17,0-.07-.13-.06-.12.16-.26,0v.14l0,0,0,.05-.17-.09-.14.27.09.12-.05.09L54,12.4l0-.16.09-.15,0-.11L54,12l-.06.12H53.7l-.07,0v.07l.24.21h-.43l.26.18-.18,0h-.11l-.13-.11-.15,0,.17.13,0,.21-.11-.06-.08-.14-.16.05-.14-.25-.3.09.09.23-.17,0,0,.15-.2-.1-.16.08-.16.27.25,0,.08.14.05.1h-.07l-.15-.06-.06.09-.25-.12-.15.12,0-.33-.28.24-.18.14-.2.27-.36.16-.15.15.9-.37.11,0,.13-.07.11-.07.15.05v.22l0,.06h-.15l-.11-.11-.13.14-.19.12-.07.25-.15.13-.12.23-.34.41v.11l0,.17h-.31l0,.33-.08.16,0,.23-.3,0,0,.06-.29.05.27.29-.08.11-.07-.05-.57.25L49,17l-.21.1-.16.32-.27-.21-.14.06.08.28-.21,0-.2.12-.42.18.26.14h-.44l-.3.18-.27.11,0,.19-.32,0-.17.23.17.26-.09.19.06.09-.22.19,0,.16-.08.33.28.08.41-.14L47,20l-.31.22-.22-.05-.21.16-.08.32h.62l-.16.22-.25.17.42.41.81.23,1.13-.77.41-.08.15-.4.23.3.14.46.25.4.21.59.31.52.14.44.17.27,0,.49.68-.07,0-.29.18-.18.32-.1.38.06.15-.28.22.09.35-.72-.26.2,0-.4.12-1,.58-.28.1-.3.28-.44-.58-.56-.4-.11-.12-.58.14-.5L53,18l.22-.23.1-.31.62-.34.65-.55-.16-.28.11-.55.24-.23.29,0h.41l.6.31,0,.36h-.14l-.13.44-.28.24-.37.29-.07.19-.3.17-.22.43.12.17.12.35.19.39,0,.73.53.2.36.18.61.12.88-.22.89-.17.37-.49,0,.37.43.35.48.1-.38.09-.5.37-.4,0-.53-.1-1.16.21-.28.31.18.36.18.16.36.05-.07.4.07.52-.56,0L56,21.9l-.51.25-.17.46-.12.22.12.36.18.9-.16.33-.08.17-.37-.27-.28.27-.32.17L54,24.38l-1.33.38-1,.32-.18.14L51.06,25l0-.35-.57.14-1,.43-.07-.27L49,24.82l-.51-.7.77.05-.22-.37-.28,0L49,23.4l.4-.2-.29-.28v-.4l.07-.49h-.23l-.2.41h-.38l0,.26L48,22.52l-.36.62.2,1,.19.55,0,.16.18.36-.33.41-.43-.23-.49.08-.19.19h-.65l-.23.12-.07.32-.3,0-.13-.07-.18.21-.28.36-.11.31-.52.44-.71.25-.24.07-.23.6-.13.2-.71.16-.35.44h-.41l-.37-.28-.31,0-.1.29.11.27-.12.43-.56,0-.13,0-.23-.23h-.23l-.63.08-.23.3v.41l.82.29.33.1.4.22.2.6.41.25-.07.73-.23,1-.37.81-3.68-.16L36,34l-.44.34-.48.17.2.62-.1.64v.54l-.76,1.79.33.37.1.48-.14.79.51.14.56-.12.37,0,.78.87.18-.24.41,0,.3-.16.53-.11,1,0,.33-.24.81-.57.07-.36.57-.58L41,37.8l.15-.6.51-.5.3-.44,1.58-.74,0-.59.14-.48.49-.23.9.13.69.22.72-.47.66-.25.75-.43.89.57.62,1,.86.69,1.07.59.83.55.51.4L53,38l-.18.55.13.38.42-.74.36-.31-.36-.57.14-.34.31-.07.77.31,0-.19-1-.77-.84-.69h-.21l-.68-.32-.48-.82-1-1v-.7l.78-.45.26.5L52,33l.67,1,.58.31.25.23,1.67.76.28.41-.17,1.08.62.78.32.24.19.59h.46l.67.25-.77.06.18.63.08.34.53.25.49.26-.17-.75.51,0L58,39.1l0-.18.42.09.31-.12,0-.35-.3-.25-.3,0h-.3l.22-.4-.64-.82v-.24l.19-.06.46.24.29-.06,0-.44.28-.15.28.18.51-.27.91.44.61-.42.5,0,.11-.35-.25-.15-.51-1.08.59-.76.22-.94.29-.42.68-1.21.7-.11.13.45,1.06.16-.76.51.7.32.11.54,1.86-.56-.65-.19-.62-.56.68-.54L67.62,31l-.63.5.31.38-.69.86,3.13,2.14.36.75-.85.68-4.12-.83-1.62.69L62,36.21l-.29.55-1.55.67.31.21.18,1.47,1.23.8.73.58,1.17-.56,1,.6L66.09,40h1l-.06,1.91-1,3-2.37-.28-1,.47c-1.53-.52-3.57-1.2-5.1-1.7l-1.66.88.2.7-.57.59-2.74-1-.25-.62-2.72-.62-1.23-.85.39-.43.37-.4c-.09-1.83-.09-1.83-2.63-1.86L42,40.2,39.4,41.57l-2.66-.67-.87,1.56L34.78,43l-1,1.4c0,.39,0,.79,0,1.19l-.86,1.3L31.36,48l-1.28,2.21c-.38,1-.91,2.27-1.28,3.26l.61,2.16-.25,2.81.36,1.68c.77.93,1.78,2.17,2.56,3.09l.77,1.18,3.34,2.08,1.9-.46,1.86.28L43,65.06l1.59.13,1.12,1.34,1.82-.27.87.51c-.16,1-.39,2.39-.55,3.41l2.23,2.74L50.91,75l.24,1.9c-.39,1-.9,2.41-1.28,3.45.4.84.94,2,1.32,2.81.05.67.13,1.57.18,2.25.3.7.7,1.64,1,2.35l-.12.12-.1.15.08.25,0,.21.13.09.15.15.14,0,.22-.13.15-.08.25,0,.14-.07.45-.15.43.1.15,0,.24,0,0-.11h.39l.57-.28,1-.7.89-.75.44-.33.45-.34L59,85l-.18-.1.66-.38.72-.26L60.5,84l.26-.5.2-.36.16-.64v-.44l0-.34.2,0,.55-.51.42-.13.39-.39.58-.37.67-.1.69-.54.69-.72.16-.67.66-2L66,76l.05-.29-.05-.3.1-.4,0-.29.29-.62-.19-.38,1.44-2.52L68.1,71l.24-.16,2.51-2.35.79-.45,1.41-1.29L74,65.55l.42-.79,1.21-1.84.47-1.35c0-.19.06-.39.1-.58L76,60.85l-.37.34-1.15.27-.64.08-.34.2-.6.08-.7.33L71.83,62l-.18-.45-.21-.19L71,61.24l.11-.21.42-.16.09-.26-1.1-1.69L70,58.6l-.23-.28L69.51,58l-.27-.79-.08-.62-.63-.92-.3-.63,0-1L68,52.88l-.28-.41-.57-.76,0-.63-1-2.24L65.75,48l-.21-.5-.76-1.17.12-.66.38.62.37.84.47.6h.25l.15-1.11.15.92C67.82,49,67.82,49,68.08,50l.4.87.62.31.11.55.33.47.18,1.7.64.56.48,1.1.53,1V57l.3.62-.25.71.32.81,0,1.11.89,0,.63-.45.42,0,.48-.29.41-.33.41.1.66-.63,1.46-.52.17-.59.49-.28,1-.34H79l0-.34.29-.32h.5l.16-.38.25-.33.35-.26,0-.38.22-.67.29-.21.16-.24.24-.5.3-.79-.29-.35-.21-.57-.68-.33-.37-.63L80,49.23l-.91,1.51-.6.3L78,51l-.34.25L77.37,51l-.08-.5.08-.77-.15-.27-.42.8-.32-.87,0-.18-.18-.5L75.76,48l-.27-.72-.33-1,.51-.57.19.13.4,0,.88,1.9.53.24.31.32c.79.56.79.56,1.18.67l.66-.47.51.14.2,1.06,2,.49.25-.1.85.19.12-.28.28.09.2.1.32,0,.2-.07.21-.15.14.34.2.44.08.55.18.18.24.21.36.68.17,0,.24-.19,0,.27-.16.25-.41.12.37,1,.39.42.34-.38.11-.44V53l.15-.19,0,.64.09.42-.14.49-.12,2.88,0,1.91-.08,1.64,0,.47,0,.4,0,.68-.13.46,0,1.15.16-.05.26-.4.46-.68.13-.44.23-.23.27-.95.24-.6L89,60l.08-.58.19-.79.22-.64.31-.58.75-1.24.37-.91.27-.54.24-.71.07-.64.17-.24h.24L92,53l.15-.31,0-.4.08,0v1.08l0,.83.07.49-.05,1.14-.13,1.09-.15.67.06.33.08-.2.16-.54.08-.42-.07.86-.15.9-.19,1-.09.56-.21.82-.18.73-.65,2.09,0,.24-.31,1-.33.91-.35.92,0,0L89.37,68A11.35,11.35,0,0,0,90,66.11l0,0c0-.11,0-.22,0-.33a9.69,9.69,0,0,0-.46,1.43A18.44,18.44,0,0,1,88.3,70.2ZM64.65,41.56l.43.25.64-.31c0-.14,0-.29,0-.43l.34-.2-.94.33Zm-6.25-.32.63.21.45.08,1-.31-.45,0h-.91L58.74,41Zm-7.92-2.12,1.3.68.37.28.2-.13c0-.17,0-.35,0-.52l.31-.56-.61,0-.47.09-.44-.09-.28,0Zm-2.9-3.76.22.48.19.09.21-.32,0-.52-.08-.5L47.7,35l-.12.19Zm-.4,1.12.26.73,0,.71.11.24.21,0,.14-.1.39-.21.07-.26,0-.45,0-.49-.07-.25-.26-.11-.35.09-.17.09Zm-4.25,1.19.31.13.29-.13,0-.35-.45.09Zm12.8-16,.24-.25.28-.13-.37-.11-.12.07Zm-2.11.91.19-.15.14-.22v-.37l-.24.15Zm-4,1.11.08.26.22.17-.18.16.16.27.18-.05.26-.33h0l.17-.76-.21.14L50,23.45l-.28.07Zm16.6-13.07.25.16h.1l-.22-.1Zm7.67,3.43.46.31h0ZM68.32,11l.23.11,1.36.67-1.36-.67-.22-.1Zm-1.63-.71c.37.15.74.31,1.1.48l.51.22C67.77,10.74,67.23,10.5,66.69,10.28ZM65,9.62l1.18.46h0ZM53,7.16h0a1.27,1.27,0,0,0,.28,0,.86.86,0,0,1-.17,0h0l-.25,0h0S53,7.15,53,7.16Zm.33.2h0l-.08,0-.06,0h0l-.19,0h0s0,0,0,0h0Zm.54.08-.11,0h0l-.09,0c-.15,0-.16,0-.17,0h0l0,0-.4-.06h0a1.15,1.15,0,0,0,.24.06l.09,0h0l.11,0,.05,0a.8.8,0,0,0,.29,0Zm.39,0-.08,0-.16,0h0A.47.47,0,0,0,54.28,7.43Zm.51,0s-.12,0-.18-.06h0a2.71,2.71,0,0,0-.37-.05h0s.1,0,.15,0h0a1.7,1.7,0,0,0,.46.08Zm.15-.23-.22,0-.21,0h0Zm8.91,6-.21-.15-.31-.1-.19.06.08.18.22.16.27.1.11-.11Zm.65-2.76.17.12.26.12,0-.11ZM60.85,9.06l-.26-.21-.31-.13-.19-.06-.19,0,0,.07.16.1.06,0,0,.05,0,.07h-.08l-.23,0,.08.09,0,0,0,.06-.06,0,.13.11.12.12.11.07h-.11l0,.05.39.18.11.12.11.07.15.11L61,10l0,.07.09.07.3.12,0,.06.1.08,0,.13.13.11-.08.06.4.2.12.19-.09.12.07.1.33.18h.18l.37.26.16,0-.32-.26.28.11.22.11.07.07.44.22.49.08.37,0-.9-.42L63,11.27l-.31-.22-.06-.13-.33-.24v0l-.34-.3v-.05l-.3-.18.07,0L61.49,10l-.19-.11,0,0,0-.05,0-.11-.2-.15-.18-.29Zm-.63-.9,1.1.29-.6-.17Zm-3.16-.64.6.11h0ZM54.4,7.18l1.53.19c.48.07.94.19,1.42.22l1,.19,1.91.41L60,8.11l-1.33-.29.22,0-.29-.06.07,0-.43-.09-.21,0-.25,0,.11,0-.41-.07-.67-.11h0l-.28,0,.16,0-1.13-.17-1-.12Zm-.64,0a.86.86,0,0,1,.17,0h0a1.49,1.49,0,0,0,.36,0l-.22,0-.31,0Zm0,0a7,7,0,0,0,.76.13h0a1.09,1.09,0,0,0-.23-.06c-.09,0-.44-.07-.53-.07Zm0,0a3.28,3.28,0,0,0-.51-.06h0l.26,0,.15,0h.1l.23,0h0A.72.72,0,0,0,53.69,7.26Zm-2.44.27h0l-.09,0h0l0,0,.24,0h.11v0l.09,0,.13,0h0l0,0h0l.08,0v0l0,0V7.48l0,0-.07,0h-.22l-.08,0h-.1v0l0,0h-.05l-.09-.06-.05,0h0v0l.11.07v0l-.06,0,0,0H51l-.05,0-.06,0-.08,0h0l0,0,0,0h0l-.07,0h0l0,0,0,0h0l-.09,0h0v0h0l0,0,0,0,0,0h0l0,0h.42ZM50,7h0Zm-.2.66,0,.09v0h0l0,0H50l0,0-.06,0-.05.06v0l.06.06.09.07.09.05h.09l.09,0,0-.06,0-.06h.05V7.82h.05V8s.09,0,.13,0l.05,0,0,.06V8l-.13.05,0,0h-.1l-.12,0,0,0v0l.08,0,.12,0,.2,0h.18v0l-.1,0h-.1l-.11,0,0,.05h-.06l-.09,0,0,0,.09.08.14.08,0,0,.09,0h.07l0,.05-.12,0,.13.06.09.07H51l.06,0V8.53l.06-.16.07-.07,0,0v0l0-.07,0,0v0l0,0V8l0-.08.1,0,.06,0h0l0,0h0V8l.1.08.09,0,0,0,.06,0,.05.06v.15l0,0,.16,0,0,0,0,0,0,.07.05,0h.06l.05,0,0-.07V8.28l0,0,0-.05,0,0-.09,0-.06,0H52l0,0,0-.06,0,0-.21,0V8l0,0-.09,0h-.07l-.1-.11-.14,0h-.11l-.05,0-.1,0H51l-.05-.05-.08,0,0,0,0,0,0,0V7.53l-.07,0h-.09l-.09-.06V7.5l0,0a1.21,1.21,0,0,1,.21.25l-.15-.09-.07-.08-.05-.07-.06,0v0l0,0,0,0,0,.05v0l0,0,0,0-.06,0,0,0h.06l.06,0v0l0,0h0l-.1,0H50l-.05,0A.14.14,0,0,0,49.84,7.61Zm-.06.22,0,.1.1.07.08.05-.11-.14ZM35.62,17.37l.31-.16.38-.13.26-.07.39-.19.49-.12.32-.24.52-.35v-.38l-.13-.07.15-.43-.28,0-.23-.21-.32.41-.15-.12-.18.15,0-.14-.25,0-.14-.08-.4.2-.08-.09-.27.14-.2.21-.34.13v-.16l.18-.2v-.3l-.2-.15-.07,0-.08.29h-.12l-.32.11-.41.3v.11h.26l.32-.07.13.07-.24.22-.12.14-.7.14h.54v.33l-.11.17-.47.21.07.06.44-.08.25.08.36.3Zm2.86,8.89.11-.76v-.41l.28-.16.24-.14.09-.15-.39-.6-.61.2-.26-.07-.27,0-.14.15.2.28-.06.1-.47.16-.1.1-.16,0-.35-.08-.05.47-.1.15.29.37,0,.15-.27.19-.16.3-.37.21,0,.12.27.33h.56l.58-.31.44-.21H38l.31,0Zm4.93.11-.21-.3-.41,0-.08.09H42.6L42.49,26l0-.34-.23-.46c0-.08,0-.16,0-.25l-.19-.31L42,24.55l-.15-.26,0-.43-.08-.15-.25-.15-.15-.11-.35,0-.07-.11.46-.36.31-.44.23-.48L41.72,22l-.42,0L41,22l-.19,0-.16,0,.1-.16.28-.18.25-.28.13-.19,0-.14-.29.22-.18,0-.41,0-.16,0-.3.45-.31.3,0,.09-.05.14h-.13l-.13-.16-.17,0-.06.1.15.17.22.07,0,.07-.34.36v.11l.12.08.11.12-.39.23-.17.13.44-.14v.33l.13,0,.19-.11.15-.25.09-.11,0,.23v.26l-.26.38-.08.14.34.09.28,0,.33-.18h.11l-.09.24-.1.27.2.14.09.1-.13.28-.08.37-.5.09-.12-.07-.14,0-.08.22L39.5,26l-.12.16.19.12.12.12-.08.14-.58.29-.16.13.25.16.19-.06.1.08.32.1.33.06.33-.06-.17.19-.23.1h-.48l-.38.29-.32.29-.27.43.51-.27.25-.07.2.17.33-.29,0-.08.39-.09.43.05.2-.2.42.24.37-.18h.64l.46-.19.24-.24-.29,0-.11-.12.2-.26.45-.35Zm-4.12-4.53.24-.24,0-.17-.37.24-.13.26ZM42.75,20l.15-.27v-.16l-.28.32,0,.25ZM34.43,9.86l.43-.17h0l-.36.14ZM30.7,12.41l-.72.4-.12.13-.16.19.2,0,.4-.2.15-.14.15-.14.13-.1,0-.1ZM7.23,55.61l-.06.1v.17l.08.34v-.1l0,0,.07.21L7.44,56l.07-.07L7.6,56l0-.32,0-.23L7.42,55l-.14-.23H7.2l-.09-.21h0l0,.36ZM7,54.27c0,.06,0,.11,0,.17v0l0-.15H7l-.06-.52.06.52Zm.63,4.39c-.09-.48-.19-1-.26-1.44s-.14-.92-.2-1.38c.06.46.12.92.2,1.38S7.53,58.18,7.62,58.66ZM8.1,56,8,55.82l-.16-.11,0,.31.08.2h.13Zm2.15,6.34-.13-.43-.11.15.1.35ZM16,27.29l-.69.62-.45.58-.33.55-.2.37-.07,0-.14,0-.18.35-.09.18-.26.34-.12.29h.11l.18,0,.13,0,.15,0,.27-.22,0,.11.06.11-.29.48.21-.12.13-.12h.15l-.12.35.13.09.22-.17c0-.09.08-.18.13-.27l0-.33-.12.12L15,30.3l.14-.18.12-.17h-.16l0,0,.13-.25.26-.38,0-.22-.18.08-.14.14,0-.08v-.18l0-.23.07-.15v-.13l-.21.15-.07,0,.34-.45.23-.31.18-.23.17-.18Zm-2.42,2a1,1,0,0,0-.13-.59l-.09,1C13.6,29.33,13.6,29.33,13.6,29.31Zm7.28-11,.07-.06h0l-.29.25c-.4.38-.8.76-1.19,1.15-.78.78-1.54,1.6-2.26,2.44-.44.52-.87,1.05-1.3,1.59l-.76,1a42.26,42.26,0,0,0-3.52,5.67,43.39,43.39,0,0,0-2.06,4.61c-.2.52-.39,1.06-.57,1.59l-.33,1.08A42.33,42.33,0,0,0,7.5,42.4c0,.27-.1.53-.14.79-.08.45-.14.91-.2,1.36.06-.45.12-.91.2-1.36,0-.26.09-.52.14-.79a44.59,44.59,0,0,1,1.16-4.79l.12-.36.11-.34,0-.15L9,36.69l0,0,.08-.13.05-.11,0-.11-.09.09h0l.07-.16L9.28,36,9.34,36l.13-.31,0,.15,0,0,.1-.18c0-.11.07-.21.11-.31l0-.16,0-.07.09-.2.11-.3.16-.35.07-.14.07-.1.06-.1.06-.11,0,0,.1-.17.13-.25.07-.12v.17l.08-.09.26-.39.27-.31.09-.08.29-.41.1-.16,0,.1a1,1,0,0,1-.07.15l-.07.11-.06.15.13.1-.08.11-.13,0-.09,0-.28.42-.26.46-.07.17,0,.28.07,0,.2-.26.16-.26.11-.19.1-.12.13-.05.58-.47.06-.14,0-.13.09-.11.28-.17L12.7,32l.07-.14h0l-.07,0,.23-.45v-.1l-.16.2-.12.17-.07.13-.21.27-.11.24-.1,0-.12.05-.11-.09v-.09l0-.17v-.27l0-.17.08-.19.13-.36.13-.23.15-.26,0-.08h0l-.1.12-.07.07v-.06l.07-.13.11-.15.18-.16.13-.16.15-.25.17-.39v-.1H13l-.33.23-.36.38-.15.18-.36.55-.29.45-.1.14,0-.05.31-.5.15-.24.12-.24h0l.17-.23.33-.5.2-.24h.08l.16-.26.32-.43.16-.11.49-.1h.51l.26-.19.21-.22.27-.29.19-.2.1-.06h.14l.13,0,.2-.17.27-.28.21-.22,0-.1v-.14l.09-.06.1-.07.34-.47,0-.21,0-.21-.12.07-.13.12-.06,0,0-.07.26-.34L17,25,17,25h-.09l-.33.29-.13.11-.15.07-.16.15h0l.12-.2.15-.16.08,0,.21-.23h.09l.1-.05c.36-.2.36-.2.49-.38l.05-.13-.09,0h-.07l.08-.29-.09.05,0-.13-.09.07h0l.06-.16.19-.32.12-.28.06-.18,0-.21.07-.1.06,0v.07l.1-.07.23-.23.12-.18,0-.07.05-.1.22-.26.09-.17.08-.14.08-.11.08-.13.09-.13.07-.09.07-.1.08-.1.1-.13.06-.08.16-.23.14-.19.1-.11.08-.1.12-.15.19-.23.08-.11-.12.11-.25.23-.16.15-.18.16-.07.09-.09.11-.15.13-.09.09-.19.21-.05,0-.17.17,0,0,.06-.1,0,0-.06.06-.16.16-.14.13-.14.1h0l.09-.13.07-.1h0l.19-.24,0,0,0-.06.23-.26.14-.2.17-.16.47-.5.22-.22.24-.23.08-.09h0l-.1.08.11-.13h0v0l.09-.11.19-.2.1-.1.18-.18.07-.08.17-.17,0,0Zm3-2.28.33-.27.17-.12.4-.3.28-.2.11,0-.21.19-.1.12-.36.32-.43.44.41-.28.45-.27.36-.25.55-.32.22-.16.1-.1,0,0-.06,0a6.4,6.4,0,0,0,.78-.63l0-.06h-.09l.29-.22,0-.07.19-.16.4-.26.18-.1.12,0,.18-.15.1-.08.2-.11.32-.17.19-.12.21-.14-.36.19,0,0,.32-.17.19-.1.25-.16h-.08l0,0,.32-.17h-.05l-.18.08h0l.25-.13.08,0,.28-.14.17-.09.18-.1-.1,0-.16.08-.17.08.06,0-.1,0c-.5.26-1,.52-1.47.8s-1,.56-1.44.85l-.5.32-.41.28-.47.33-.6.4-.05.06.2-.11.05,0-.12.13-.48.35-.3.18h0l.27-.21.25-.21H25l-.51.36c-.55.4-1.08.81-1.61,1.24h0l-.22.19-.32.29-.09.1-.61.53-.09.11h.07l-.25.26-.31.39-.18.27h0l.3-.27.73-.81.27-.3.12-.09-.14.22-.21.27.05,0,.33-.22.3-.25.12-.16.38-.34.27-.25.2-.21v-.06Zm4.87.06.08.11.11,0,.13-.15.28-.2.34-.08.24-.11.32-.26.21-.15h.05l-.26.26-.14.13.28-.1.41-.06.75-.31.69-.42.56-.38.43-.19.29-.27.23,0,.1.1.18-.11.29-.05.26-.09.17,0,1-.21.29-.11.42-.19.75-.29.77-.35-.5.12-.23-.11-.19-.12-.42.15.07-.08.46-.25.22-.11.35-.32h.1l0,.25v.26l.21,0,.32-.11.27-.28.22-.18.05-.26,0-.31L39,11,39.3,11l0,.14.09,0,.31-.16.25-.19-.1-.09-.24,0-.4.11-.06-.08.25-.15.36-.12L40,10.3l.13.17.13,0,.27,0,.41-.15,0-.17V10l.2-.07h.47L42,9.75h-.18l-.12-.05.09-.13.14-.1.21-.05h.18l.28-.11.28-.19L43.06,9l-.24,0,.08-.1L43,8.78l.09-.11h.21l.25-.07h.13l.13,0h.1L44,8.58l.16-.13v0l-.12,0h-.17L44,8.35l.16-.06h.17l.1-.08,0-.05-.28.08-.22,0L44,8.23l.36-.11L45,7.9l.19-.06.43-.1.33-.11.23-.06.18,0,.15,0,.11,0-.38.06.15,0,.25,0h.14l.29,0,.09,0v0H47l.16,0h.15l.23,0,.13,0,.21,0,.16,0,.35-.06.1,0,.06,0h0l-.17,0-.16,0-.32.05h.06l-.15,0,.23,0h0l-.43.06-.39.06-.48.08c.47-.09.81-.15,1.5-.24l.17,0h-.13l-.29,0-.34,0-.31,0,.17,0,.43,0,.14,0h-.17l-.37,0h-.11c.35,0,.48-.05.88-.07h.15l.28,0h-.59l-.62,0-.39,0h-.14l.27,0,.36,0h.14L48,7l.29,0h0L48,7l-.38,0-.35,0h-.07l.3,0,.34,0,.55,0H48l-.27,0-.38,0-.24,0H47l-.23,0h-.09l.25,0H46.4l-.5,0-.35,0h.11l-.38,0h.12l-.4,0h-.14l-.32,0L44,7.39h0l.47-.06-.68.09h-.08l-.14,0h0l-.08,0-.28,0-.6.11-.53.09-.17,0H41.8L43,7.52l-1.23.23-.12,0-.34.07h0l-.22,0h0l-.75.17-.6.14-.1,0,.1,0-.07,0-.34.09-.13,0,.15,0,.16,0-.22.06L39,8.41l-.15,0h0l-.11,0-.15,0H38.6l-.13,0-.11,0-.15,0-.07,0-.08,0-.54.16L37.09,9l-.21.08h0l.36-.12h.06L37.16,9h0l.17-.05.1,0h.07l.19-.06-.43.22-.15.07-.24.11-.45.17-.22.09-.3.16-.34.16-.38.17-.43.19-.32.17-.44.21-.2.13-.28.13-.54.24-.27.15-.49.25-.18.14.2-.06.4-.17-.37.23-.29.24-.08.12-.27.22-.12.08h-.1l.12-.18-.3,0-.17.15-.21.27.08.06-.18.16L30.4,13l-.27.16-.57.39-.21,0-.32.11-.46.3-.79.49-.25.22-.06.15-.21.14-.42.25-.29.28-.22.31-.17.21-.73.65v.09l-.35.37L25,17.3l-.16.21-.17.3-.54.71-.12.29-.23.38.06.22h.09l0,.16.13,0,0,.23.21.37.55-.41.36-.35.37-.44.28-.19.5-.65,0-.07.23-.15.3-.06.41-.31.46-.37.2-.16.23-.31.24-.1.28-.29v-.12ZM70.18,77.59l0-.28-.25.18-.27.41-.39.25H69l-.12.26-.3.59-.37,0-.83.4-.66.13-.2.2-.34.52-.22.29-.23.67-.24.61-.44.44-.56.56-.62,1.5.25.25.28,0,.52-.18c1.12-1.19,2.58-2.81,3.65-4.05l.42-.61.26-.46.1.26.24-.21.14-.3.21-.64.13-.33Zm18-13.09.09-1.7-.61,1.66-.22,1.06Z"/><text x="0" y="115" fill="#000000" font-size="5px" font-weight="bold" font-family="'Helvetica Neue', Helvetica, Arial-Unicode, Arial, Sans-serif">Created by Mattia Lombardini</text><text x="0" y="120" fill="#000000" font-size="5px" font-weight="bold" font-family="'Helvetica Neue', Helvetica, Arial-Unicode, Arial, Sans-serif">from the Noun Project</text></svg>